<?xml version="1.0" encoding="UTF-8"?> <svg xmlns="http://www.w3.org/2000/svg" id="Layer_1" data-name="Layer 1" viewBox="0 0 480 240"><defs><style>.cls-1{fill:#fff;}.cls-2{fill:red;}</style></defs><path class="cls-1" d="M474.32,153.1H429.11L396.39,80.15,477.5,1.6,403.88,1l-30,29.13L361.23,1l-308.5.22L6.91,157.76H20.26l-17.76,24H24.92L13,238.64H46.23l12-56.87h4.5l-11.87,57H84.4l3.48-17.6L94.21,239h31.54l-.26-.8a20.69,20.69,0,0,0,5,.57h36.84a22.63,22.63,0,0,0,5.82-.73l-.15.73H206.5l6.43-31.26,25.18-.3.54-.09a18,18,0,0,0,2.11-.48l-6.7,32h33.35l5.92-28.32h4l-5.94,28.32H370.8l-.05.06,61.78-.28c8.33,0,14.71-4,18-11.26l.3-.69,6-29.29v-.65c0-5-1.43-8.84-4.29-11.46a13.4,13.4,0,0,0-5.15-2.94l5.51,0Z"></path><path class="cls-2" d="M313.08,31.65l16.55,37.2,37.74-36.61L356.78,7.83,57.82,8,16,151H70.09L103.78,38.05h48.35L119.08,151h55.07L207.52,38.05h49.31L223.77,151H245l45.71-44.2ZM460.85,8.26l-54.24-.43L259.12,151H313.4l36.76-35.61L366.42,151H420.7L388.24,78.58Z"></path><path d="M144,168.13a3.77,3.77,0,0,0-1.21.47,3,3,0,0,0-.7.75,8.28,8.28,0,0,0-.81,1.42l-2.71,13.28-2.77,13.42-2.93,13.85-2.69,12.53h37.08a6.22,6.22,0,0,0,2.6-.43,3.35,3.35,0,0,0,1.44-1.39l2.82-13.85,2.91-14,2.83-13.4L182.64,168H145.55A7.55,7.55,0,0,0,144,168.13Zm13.38,4.55h11.3L159,219.21H144.21l6.26-29.84h-5.56l2.21-10.53A13.36,13.36,0,0,0,157.41,172.68ZM125.2,190.24c.15-.74.4-1.9.74-3.52s.8-3.85,1.41-6.74,1.41-6.77,2.44-11.68q0-4.49-2.1-6.45t-6.39-1.95L82.15,160,71.08,175,59.24,232H78.82L90,175.33h17.73l-2.8,13.35H97L87.92,201,99,232.19h17.29l-10.62-31.57,9.68-.21a11.27,11.27,0,0,0,5.54-2.53,14.85,14.85,0,0,0,3.92-5.75Q125,191.32,125.2,190.24ZM77.05,160l-49.94-.09L16,175H33.29L21.38,231.85H40.72l12-56.88H66ZM441.53,188.1l-26.51.12,2.69-12.79,31.74-.1,11.4-15.43H408.63c-.37,0-11.55,15.53-11.55,15.53s-4,19.39-4.3,20.62q.21,7.26,8.74,7.25H428.1l-2.86,13.13H395.66l-11.39,15.42,48.26-.23q8.52,0,11.77-7.25L450,196.51c0-3-.68-5.15-2.1-6.45S444.38,188.1,441.53,188.1ZM190.92,168.3q0-4.49-2.11-6.45t-6.37-1.95H145.6a12.79,12.79,0,0,0-7.21,1.95,13.9,13.9,0,0,0-4.8,6.45q-2.75,13.69-5.65,27.51t-6.17,28.9Q122,232,130.51,232h36.84q8.52,0,11.75-7.25,3-15.09,5.94-28.9T190.92,168.3ZM179.4,194.65l-2.91,14h0l-2.87,14-.12.35a5.74,5.74,0,0,1-2.62,2.55,8.52,8.52,0,0,1-3.6.64H130.45c-.23,0-.62,0-1,0a6.5,6.5,0,0,1-.9-.13l-1.17-.26,3.23-15L133.48,197l2.78-13.42L139,170.15l.08-.27a11.62,11.62,0,0,1,1.11-1.93,5,5,0,0,1,1.32-1.34,5.65,5.65,0,0,1,2-.82,10,10,0,0,1,2-.18h36.83c.21,0,.56,0,.93,0a6.88,6.88,0,0,1,.81.11l.83.18c.07.54.15,1.06.19,1.61l0,.35-2.89,13.35Zm171.15,21.66,2.66-12.67H385l3.16-15.08H356.36l2.74-13.13H392L403.4,160H342.77l-15,71.84h51.45l11.4-15.42ZM318.83,160l-15.05,71.84h19.34L338.28,160Zm-24-.11-6,28.66L271,188.45l6-28.44H257.46l-15,71.84h19.46l5.92-28.33h17.85l-5.94,28.33h19.46l15.18-71.95Zm-47.85,32.23c.11-.54,4-18.92,5-23.83,0-3-.68-5.14-2.1-6.45s-3.55-1.95-6.38-1.95l-47,.11-15.07,72H201l6.41-31.19,30.12-.36a11.19,11.19,0,0,0,5.54-2.53A15,15,0,0,0,246.94,192.13Zm-19.88-3.45H209.9l2.78-13.25h17.15Z"></path></svg> 